<svg width="57" height="51" viewBox="0 0 57 51" fill="none" xmlns="http://www.w3.org/2000/svg">
<path d="M6.33333 19.125L11.0833 4.78125H45.9167L50.6667 19.125M45.9167 35.0625C44.6569 35.0625 43.4487 34.5588 42.5579 33.6621C41.6671 32.7654 41.1667 31.5493 41.1667 30.2813C41.1667 29.0132 41.6671 27.7971 42.5579 26.9004C43.4487 26.0037 44.6569 25.5 45.9167 25.5C47.1764 25.5 48.3846 26.0037 49.2754 26.9004C50.1662 27.7971 50.6667 29.0132 50.6667 30.2813C50.6667 31.5493 50.1662 32.7654 49.2754 33.6621C48.3846 34.5588 47.1764 35.0625 45.9167 35.0625ZM11.0833 35.0625C9.82355 35.0625 8.61537 34.5588 7.72458 33.6621C6.83378 32.7654 6.33333 31.5493 6.33333 30.2813C6.33333 29.0132 6.83378 27.7971 7.72458 26.9004C8.61537 26.0037 9.82355 25.5 11.0833 25.5C12.3431 25.5 13.5513 26.0037 14.4421 26.9004C15.3329 27.7971 15.8333 29.0132 15.8333 30.2813C15.8333 31.5493 15.3329 32.7654 14.4421 33.6621C13.5513 34.5588 12.3431 35.0625 11.0833 35.0625ZM50.4133 3.1875C49.78 1.33875 48.0067 0 45.9167 0H11.0833C8.99333 0 7.22 1.33875 6.58667 3.1875L0 22.3125V47.8125C0 48.6579 0.33363 49.4686 0.927495 50.0664C1.52136 50.6642 2.32681 51 3.16667 51H6.33333C7.17319 51 7.97864 50.6642 8.5725 50.0664C9.16637 49.4686 9.5 48.6579 9.5 47.8125V44.625H47.5V47.8125C47.5 48.6579 47.8336 49.4686 48.4275 50.0664C49.0214 50.6642 49.8268 51 50.6667 51H53.8333C54.6732 51 55.4786 50.6642 56.0725 50.0664C56.6664 49.4686 57 48.6579 57 47.8125V22.3125L50.4133 3.1875Z" fill="black"/>
</svg>
