<svg width="62" height="56" viewBox="0 0 62 56" fill="none" xmlns="http://www.w3.org/2000/svg">
    <path
        d="M6.88889 20.707L12.0556 5.17676H49.9444L55.1111 20.707M49.9444 37.9629C48.5742 37.9629 47.26 37.4175 46.2911 36.4467C45.3221 35.4758 44.7778 34.1591 44.7778 32.7861C44.7778 31.4132 45.3221 30.0964 46.2911 29.1256C47.26 28.1548 48.5742 27.6094 49.9444 27.6094C51.3147 27.6094 52.6289 28.1548 53.5978 29.1256C54.5668 30.0964 55.1111 31.4132 55.1111 32.7861C55.1111 34.1591 54.5668 35.4758 53.5978 36.4467C52.6289 37.4175 51.3147 37.9629 49.9444 37.9629ZM12.0556 37.9629C10.6853 37.9629 9.37111 37.4175 8.40217 36.4467C7.43323 35.4758 6.88889 34.1591 6.88889 32.7861C6.88889 31.4132 7.43323 30.0964 8.40217 29.1256C9.37111 28.1548 10.6853 27.6094 12.0556 27.6094C13.4258 27.6094 14.74 28.1548 15.7089 29.1256C16.6779 30.0964 17.2222 31.4132 17.2222 32.7861C17.2222 34.1591 16.6779 35.4758 15.7089 36.4467C14.74 37.4175 13.4258 37.9629 12.0556 37.9629ZM54.8356 3.45117C54.1467 1.44949 52.2178 0 49.9444 0H12.0556C9.78222 0 7.85333 1.44949 7.16444 3.45117L0 24.1582V51.7676C0 52.6829 0.362896 53.5607 1.00885 54.2079C1.65481 54.8551 2.53092 55.2187 3.44444 55.2187H6.88889C7.80241 55.2187 8.67852 54.8551 9.32448 54.2079C9.97044 53.5607 10.3333 52.6829 10.3333 51.7676V48.3164H51.6667V51.7676C51.6667 52.6829 52.0296 53.5607 52.6755 54.2079C53.3215 54.8551 54.1976 55.2187 55.1111 55.2187H58.5556C59.4691 55.2187 60.3452 54.8551 60.9911 54.2079C61.6371 53.5607 62 52.6829 62 51.7676V24.1582L54.8356 3.45117Z"
        fill="#C2C7D4" />
</svg>
