<svg width="53" height="55" viewBox="0 0 53 55" fill="none" xmlns="http://www.w3.org/2000/svg">
    <path
        d="M42.4447 20.751C41.3623 21.2538 40.1284 21.3144 39.0145 20.9195C37.9006 20.5247 36.9979 19.7067 36.505 18.6455C36.0121 17.5843 35.9693 16.3669 36.3862 15.261C36.803 14.1551 37.6453 13.2514 38.7277 12.7486C39.8101 12.2458 41.044 12.1852 42.1579 12.5801C43.2718 12.9749 44.1745 13.7929 44.6674 14.8541C45.1603 15.9153 45.2031 17.1328 44.7862 18.2386C44.3694 19.3445 43.5271 20.2482 42.4447 20.751ZM29.3262 13.8725C28.2438 14.3753 27.0099 14.4359 25.896 14.041C24.7821 13.6462 23.8794 12.8282 23.3865 11.767C22.8936 10.7058 22.8508 9.48834 23.2677 8.38246C23.6845 7.27658 24.5268 6.37286 25.6092 5.87009C26.6916 5.36733 27.9255 5.30671 29.0394 5.70157C30.1533 6.09643 31.056 6.91443 31.5489 7.97561C32.0418 9.0368 32.0846 10.2542 31.6677 11.3601C31.2509 12.466 30.4086 13.3697 29.3262 13.8725ZM15.7221 20.1914C14.6397 20.6942 13.4058 20.7548 12.2919 20.3599C11.178 19.9651 10.2753 19.1471 9.7824 18.0859C9.2895 17.0247 9.24676 15.8073 9.6636 14.7014C10.0804 13.5955 10.9227 12.6918 12.0051 12.189C13.0875 11.6863 14.3214 11.6256 15.4353 12.0205C16.5492 12.4154 17.4519 13.2334 17.9449 14.2945C18.4378 15.3557 18.4805 16.5732 18.0637 17.6791C17.6468 18.7849 16.8045 19.6887 15.7221 20.1914ZM12.5157 34.6527C11.4333 35.1554 10.1994 35.216 9.0855 34.8212C7.97159 34.4263 7.06888 33.6083 6.57597 32.5471C6.08307 31.4859 6.04033 30.2685 6.45717 29.1626C6.87401 28.0567 7.71628 27.153 8.79869 26.6503C9.8811 26.1475 11.115 26.0869 12.2289 26.4817C13.3428 26.8766 14.2455 27.6946 14.7384 28.7558C15.2313 29.817 15.2741 31.0344 14.8572 32.1403C14.4404 33.2462 13.5981 34.1499 12.5157 34.6527ZM16.3292 3.69462C9.8347 6.71121 4.78109 12.1336 2.28004 18.7689C-0.220998 25.4041 0.0354059 32.7088 2.99285 39.0759C5.95029 45.443 11.3665 50.351 18.05 52.7202C24.7335 55.0893 32.1368 54.7256 38.6313 51.709C39.7137 51.2063 40.5559 50.3025 40.9728 49.1967C41.3896 48.0908 41.3469 46.8733 40.854 45.8122C40.3708 44.7718 39.529 44.0278 38.5538 43.6376C37.5935 43.208 36.7518 42.464 36.2809 41.4503C35.788 40.3892 35.7453 39.1717 36.1621 38.0658C36.579 36.96 37.4212 36.0562 38.5036 35.5535L43.3195 33.3166C46.9275 31.6407 49.7351 28.6282 51.1246 24.942C52.514 21.2557 52.3716 17.1976 50.7286 13.6603C45.2521 1.87008 29.8516 -2.58639 16.3292 3.69462Z"
        fill="black" />
</svg>
