<svg width="68" height="68" viewBox="0 0 68 68" fill="none" xmlns="http://www.w3.org/2000/svg">
<path fill-rule="evenodd" clip-rule="evenodd" d="M34 68C52.7777 68 68 52.7777 68 34C68 15.2223 52.7777 0 34 0C15.2223 0 0 15.2223 0 34C0 52.7777 15.2223 68 34 68Z" fill="#86E837"/>
<path fill-rule="evenodd" clip-rule="evenodd" d="M19.6155 28.7693C19.6155 35.9921 32.6924 52.885 32.6924 52.4262C32.6924 51.9674 45.7693 35.9921 45.7693 28.7693C45.7693 21.5465 39.9109 15.6924 32.6924 15.6924C25.4739 15.6924 19.6155 21.5465 19.6155 28.7693ZM26.1539 27.4616C26.1539 31.073 29.0832 34.0001 32.6924 34.0001C36.3016 34.0001 39.2309 31.073 39.2309 27.4616C39.2309 23.8502 36.3016 20.9232 32.6924 20.9232C29.0832 20.9232 26.1539 23.8502 26.1539 27.4616Z" fill="#191B1A"/>
</svg>
