<svg width="60" height="62" viewBox="0 0 60 62" fill="none" xmlns="http://www.w3.org/2000/svg">
<path d="M24 10.5171H36C36 8.92319 35.3679 7.39458 34.2426 6.26753C33.1174 5.14049 31.5913 4.50732 30 4.50732C28.4087 4.50732 26.8826 5.14049 25.7574 6.26753C24.6321 7.39458 24 8.92319 24 10.5171ZM19.5 10.5171C19.5 9.13595 19.7716 7.76835 20.2993 6.49236C20.8269 5.21637 21.6004 4.05698 22.5754 3.08038C23.5504 2.10378 24.7079 1.3291 25.9818 0.800565C27.2557 0.272032 28.6211 0 30 0C31.3789 0 32.7443 0.272032 34.0182 0.800565C35.2921 1.3291 36.4496 2.10378 37.4246 3.08038C38.3996 4.05698 39.1731 5.21637 39.7007 6.49236C40.2284 7.76835 40.5 9.13595 40.5 10.5171H57.75C58.3467 10.5171 58.919 10.7545 59.341 11.1772C59.7629 11.5998 60 12.173 60 12.7707C60 13.3684 59.7629 13.9417 59.341 14.3643C58.919 14.787 58.3467 15.0244 57.75 15.0244H53.79L50.28 51.4165C50.0107 54.2049 48.7141 56.7929 46.643 58.6757C44.572 60.5585 41.8749 61.6011 39.078 61.6H20.922C18.1256 61.6003 15.4293 60.5574 13.3588 58.6747C11.2884 56.792 9.9922 54.2044 9.723 51.4165L6.21 15.0244H2.25C1.65326 15.0244 1.08097 14.787 0.659009 14.3643C0.237053 13.9417 0 13.3684 0 12.7707C0 12.173 0.237053 11.5998 0.659009 11.1772C1.08097 10.7545 1.65326 10.5171 2.25 10.5171H19.5ZM25.5 24.7902C25.5 24.1925 25.2629 23.6193 24.841 23.1967C24.419 22.774 23.8467 22.5366 23.25 22.5366C22.6533 22.5366 22.081 22.774 21.659 23.1967C21.2371 23.6193 21 24.1925 21 24.7902V47.3268C21 47.9245 21.2371 48.4978 21.659 48.9204C22.081 49.343 22.6533 49.5805 23.25 49.5805C23.8467 49.5805 24.419 49.343 24.841 48.9204C25.2629 48.4978 25.5 47.9245 25.5 47.3268V24.7902ZM36.75 22.5366C36.1533 22.5366 35.581 22.774 35.159 23.1967C34.7371 23.6193 34.5 24.1925 34.5 24.7902V47.3268C34.5 47.9245 34.7371 48.4978 35.159 48.9204C35.581 49.343 36.1533 49.5805 36.75 49.5805C37.3467 49.5805 37.919 49.343 38.341 48.9204C38.7629 48.4978 39 47.9245 39 47.3268V24.7902C39 24.1925 38.7629 23.6193 38.341 23.1967C37.919 22.774 37.3467 22.5366 36.75 22.5366Z" fill="#EE5063"/>
</svg>
