<svg width="64" height="64" viewBox="0 0 64 64" fill="none" xmlns="http://www.w3.org/2000/svg">
<path d="M25.1352 62.8492L39.2986 38.3196L50.4574 57.6482C45.0853 61.5263 38.6258 63.6086 32.0005 63.5981C29.6436 63.5981 27.3467 63.339 25.1352 62.8492ZM19.0155 60.8175C14.9564 58.982 11.3299 56.311 8.37278 52.9788C5.41565 49.6467 3.19437 45.7283 1.85391 41.4794H30.1775L19.0155 60.8143V60.8175ZM0.564895 35.1598C0.112774 30.7274 0.606409 26.2495 2.01317 22.022C3.41993 17.7946 5.70779 13.9139 8.72551 10.6365L22.8763 35.1598H0.564895ZM13.5467 6.35181C18.918 2.47435 25.3762 0.392064 32.0005 0.40189C34.3573 0.40189 36.6542 0.660994 38.8657 1.15076L24.7024 25.6804L13.5467 6.35181ZM44.9854 3.18252C49.0446 5.018 52.671 7.68899 55.6282 11.0211C58.5853 14.3533 60.8066 18.2717 62.147 22.5206H33.8234L44.9854 3.18252ZM63.4361 28.8402C63.8882 33.2726 63.3945 37.7505 61.9878 41.9779C60.581 46.2054 58.2932 50.086 55.2754 53.3635L41.1247 28.8402H63.4424H63.4361Z" fill="black"/>
</svg>
