<svg xmlns="http://www.w3.org/2000/svg" enable-background="new 0 0 24 24" viewBox="0 0 24 24"
    id="inbox">
    <circle cx="20" cy="6" r="3"></circle>
    <path d="M6.2173,18.377c0.6938,0.1514,1.4019,0.2734,2.1099,0.3643l1.3096,1.3096c0.6514,0.6519,1.5073,0.9775,2.3633,0.9775
		s1.7119-0.3257,2.3633-0.9775l1.3096-1.3096c0.708-0.0908,1.4155-0.2129,2.1084-0.3638c1.6802-0.3638,3.0283-1.5195,3.519-3.0156
		C21.7646,13.9482,22,12.4805,22,11c0-0.5522-0.4478-1-1-1s-1,0.4478-1,1c0,1.2681-0.2017,2.5259-0.6001,3.7383
		c-0.2705,0.8247-1.0527,1.4702-2.043,1.6846c-0.7427,0.1616-1.5029,0.2876-2.2598,0.3735
		c-0.2251,0.0254-0.4346,0.1265-0.5942,0.2866l-1.5537,1.5537c-0.5234,0.5234-1.375,0.5234-1.8984,0L9.4971,17.083
		c-0.1597-0.1602-0.3691-0.2612-0.5942-0.2866c-0.7568-0.0859-1.5171-0.2119-2.2612-0.374
		c-0.9888-0.2139-1.771-0.8594-2.0415-1.6846C4.2017,13.5259,4,12.2681,4,11s0.2017-2.5259,0.6001-3.7383
		C4.8706,6.437,5.6528,5.7915,6.6436,5.5771c2.6997-0.5894,5.5322-0.7275,8.2764-0.4077c0.5449,0.0703,1.0449-0.3281,1.1094-0.877
		c0.064-0.5488-0.3286-1.0454-0.877-1.1094C12.186,2.8359,9.1294,2.9858,6.2188,3.6226c-1.6802,0.3638-3.0283,1.5195-3.519,3.0156
		C2.2354,8.0518,2,9.5195,2,11s0.2354,2.9482,0.6997,4.3613C3.1904,16.8579,4.5386,18.0137,6.2173,18.377z"></path>
</svg>