<svg width="69" height="73" viewBox="0 0 69 73" fill="none" xmlns="http://www.w3.org/2000/svg">
<path d="M24.7969 0C23.9391 0 23.1164 0.339311 22.5098 0.943289C21.9033 1.54727 21.5625 2.36644 21.5625 3.22059V8.58823H17.8538C15.3608 8.58775 12.9447 9.44752 11.0168 11.0212C9.08881 12.5949 7.76812 14.7852 7.2795 17.2194L6.42562 21.4706H3.23438C2.37657 21.4706 1.55389 21.8099 0.947326 22.4139C0.340763 23.0179 1.22677e-07 23.837 1.22677e-07 24.6912C1.22677e-07 25.5453 0.340763 26.3645 0.947326 26.9685C1.55389 27.5725 2.37657 27.9118 3.23438 27.9118H5.13188L4.65319 30.3165C3.31033 30.7075 2.13098 31.5215 1.29202 32.6363C0.453067 33.7512 -0.000272267 35.1069 1.22677e-07 36.5V53.6765C1.22677e-07 55.3848 0.681527 57.0231 1.89465 58.2311C3.10778 59.439 4.75313 60.1176 6.46875 60.1176H62.5312C64.2469 60.1176 65.8922 59.439 67.1053 58.2311C68.3185 57.0231 69 55.3848 69 53.6765V36.5C69.0003 35.1069 68.5469 33.7512 67.708 32.6363C66.869 31.5215 65.6897 30.7075 64.3468 30.3165L63.8638 27.9118H65.7656L66.2055 27.8817C66.9798 27.7759 67.6895 27.3944 68.2032 26.8079C68.7169 26.2213 69 25.4694 69 24.6912L68.9698 24.2532C68.8635 23.4821 68.4804 22.7755 67.8914 22.264C67.3024 21.7525 66.5472 21.4706 65.7656 21.4706H62.5701L61.7205 17.2194C61.2319 14.7852 59.9112 12.5949 57.9832 11.0212C56.0553 9.44752 53.6392 8.58775 51.1462 8.58823H47.4375V3.22059C47.4375 2.36644 47.0967 1.54727 46.4902 0.943289C45.8836 0.339311 45.0609 0 44.2031 0H24.7969ZM17.8538 12.8824H51.1462C52.6419 12.8823 54.0913 13.3982 55.2479 14.3424C56.4045 15.2866 57.1968 16.6007 57.4899 18.0611L59.9049 30.0588H9.09938L11.5101 18.0611C11.8031 16.6014 12.5947 15.2879 13.7504 14.3438C14.9061 13.3997 16.3589 12.8833 17.8538 12.8824ZM12.9375 45.0882C12.9375 43.9494 13.3919 42.8571 14.2006 42.0518C15.0094 41.2465 16.1063 40.7941 17.25 40.7941C18.3937 40.7941 19.4906 41.2465 20.2994 42.0518C21.1081 42.8571 21.5625 43.9494 21.5625 45.0882C21.5625 46.2271 21.1081 47.3193 20.2994 48.1246C19.4906 48.9299 18.3937 49.3824 17.25 49.3824C16.1063 49.3824 15.0094 48.9299 14.2006 48.1246C13.3919 47.3193 12.9375 46.2271 12.9375 45.0882ZM47.4375 45.0882C47.4375 43.9494 47.8919 42.8571 48.7006 42.0518C49.5094 41.2465 50.6063 40.7941 51.75 40.7941C52.8937 40.7941 53.9906 41.2465 54.7994 42.0518C55.6081 42.8571 56.0625 43.9494 56.0625 45.0882C56.0625 46.2271 55.6081 47.3193 54.7994 48.1246C53.9906 48.9299 52.8937 49.3824 51.75 49.3824C50.6063 49.3824 49.5094 48.9299 48.7006 48.1246C47.8919 47.3193 47.4375 46.2271 47.4375 45.0882ZM19 68.7059V62H8.625V68.7059C8.625 69.8447 9.07935 70.937 9.8881 71.7423C10.6969 72.5476 11.7938 73 12.9375 73C14.0812 73 16.4957 73 17.5 72C18.5043 71 19 69.8447 19 68.7059ZM60.375 62V68.7059C60.375 69.8447 59.9206 70.937 59.1119 71.7423C58.3031 72.5476 57.2062 73 56.0625 73C54.9188 73 52.8088 72.8053 52 72C51.1912 71.1947 50 69.8447 50 68.7059V62H60.375Z" fill="#C2C7D4"/>
</svg>
