<svg width="67" height="61" viewBox="0 0 67 61" fill="none" xmlns="http://www.w3.org/2000/svg">
<path d="M0 12.1499V48.693C0 52.0576 1.40191 55.0483 3.64496 57.3848C5.88802 59.6279 8.7853 60.8429 12.1499 60.8429H30.4682V53.2726H12.1499C9.62644 53.2726 7.66377 51.2164 7.66377 48.693V12.1499C7.66377 9.62644 9.62644 7.66377 12.1499 7.66377H30.4682V0H12.1499C8.7853 0 5.88802 1.30845 3.64496 3.5515C1.40191 5.88802 0 8.7853 0 12.1499ZM20.094 23.1782V37.7581C20.094 39.4404 21.5894 40.8423 23.2717 40.8423H40.1881V52.3379C40.1881 53.366 40.7488 54.2072 41.6834 54.6745C42.0573 54.7679 42.4311 54.7679 42.618 54.7679C43.2723 54.7679 43.833 54.581 44.3003 54.1137L66.2636 32.1505C67.2916 31.3093 67.1982 29.627 66.2636 28.6924L44.3003 6.82263C42.9919 5.42072 40.1881 6.26186 40.1881 8.50492V20.094H23.2717C21.5894 20.094 20.094 21.4959 20.094 23.1782Z" fill="#C2C7D4"/>
</svg>
