<svg width="52" height="60" viewBox="0 0 52 60" fill="none" xmlns="http://www.w3.org/2000/svg">
<path d="M43.8095 43.9345L30.1114 57.6365C29.5716 58.1766 28.9307 58.6051 28.2252 58.8974C27.5198 59.1898 26.7636 59.3402 26 59.3402C25.2364 59.3402 24.4802 59.1898 23.7748 58.8974C23.0693 58.6051 22.4284 58.1766 21.8886 57.6365L8.1905 43.9345C5.85147 41.5957 3.996 38.8191 2.73003 35.7633C1.46405 32.7074 0.812375 29.4321 0.812195 26.1244C0.812015 22.8167 1.46334 19.5414 2.72898 16.4854C3.99462 13.4294 5.84979 10.6526 8.18856 8.31355C10.5273 5.97452 13.3039 4.11905 16.3598 2.85307C19.4156 1.5871 22.6909 0.935422 25.9986 0.935242C29.3063 0.935062 32.5817 1.58639 35.6377 2.85203C38.6937 4.11766 41.4705 5.97283 43.8095 8.31161C46.1487 10.6505 48.0043 13.4273 49.2703 16.4834C50.5363 19.5395 51.1879 22.8151 51.1879 26.123C51.1879 29.431 50.5363 32.7066 49.2703 35.7627C48.0043 38.8188 46.1487 41.5956 43.8095 43.9345ZM39.702 12.423C36.068 8.78899 31.1392 6.74356 26 6.74356C20.8608 6.74356 15.932 8.78511 12.298 12.4191C8.66401 16.0531 6.62245 20.9819 6.62245 26.1211C6.62245 31.2604 8.66401 36.1891 12.298 39.8231L26 53.5212L39.702 39.827C41.5017 38.0278 42.9293 35.8917 43.9033 33.5407C44.8773 31.1896 45.3786 28.6698 45.3786 26.125C45.3786 23.5802 44.8773 21.0603 43.9033 18.7093C42.9293 16.3583 41.5017 14.2222 39.702 12.423ZM26 33.875C24.9679 33.8983 23.9416 33.7152 22.9813 33.3365C22.0209 32.9577 21.146 32.3909 20.4077 31.6693C19.6694 30.9477 19.0828 30.086 18.6822 29.1345C18.2815 28.1831 18.075 27.1612 18.0748 26.1289C18.0745 25.0966 18.2805 24.0746 18.6807 23.123C19.0808 22.1714 19.667 21.3093 20.4049 20.5873C21.1428 19.8654 22.0175 19.2981 22.9777 18.9189C23.9378 18.5396 24.9641 18.356 25.9961 18.3789C28.0211 18.4236 29.948 19.2594 31.3644 20.7071C32.7809 22.1549 33.5743 24.0996 33.5748 26.125C33.5753 28.1504 32.7829 30.0956 31.3671 31.5441C29.9514 32.9925 28.0249 33.8292 26 33.875Z" fill="white"/>
</svg>
