<svg width="60" height="60" viewBox="0 0 60 60" fill="none" xmlns="http://www.w3.org/2000/svg">
<path d="M30 0C24.0666 0 18.2664 1.75947 13.3329 5.05591C8.39943 8.35235 4.55426 13.0377 2.28363 18.5195C0.0129984 24.0013 -0.581101 30.0333 0.576455 35.8527C1.73401 41.6721 4.59123 47.0176 8.78681 51.2132C12.9824 55.4088 18.3279 58.266 24.1473 59.4235C29.9667 60.5811 35.9987 59.987 41.4805 57.7164C46.9623 55.4457 51.6476 51.6006 54.9441 46.6671C58.2405 41.7336 60 35.9334 60 30C60 28.4667 59.8667 26.9333 59.6667 25.4667C58.0011 27.8022 55.8004 29.7049 53.2487 31.0155C50.697 32.3261 47.8686 33.0066 45 33C41.184 33.0001 37.4666 31.7881 34.384 29.5389C31.3014 27.2896 29.0128 24.1194 27.8485 20.4854C26.6841 16.8513 26.7041 12.9414 27.9056 9.31952C29.107 5.69761 31.4279 2.55093 34.5333 0.333333C33.0667 0.133333 31.5333 0 30 0Z" fill="#7E7E7E"/>
</svg>
