<svg width="70" height="65" viewBox="0 0 70 65" fill="none" xmlns="http://www.w3.org/2000/svg">
<path d="M69.7411 59.7485L55.6782 25.9695C55.4185 25.3457 54.9779 24.8124 54.4122 24.4371C53.8466 24.0619 53.1813 23.8615 52.5008 23.8615C51.8202 23.8615 51.1549 24.0619 50.5893 24.4371C50.0236 24.8124 49.583 25.3457 49.3233 25.9695L35.2604 59.7485C35.0855 60.1627 34.9949 60.6071 34.9938 61.0562C34.9927 61.5053 35.081 61.9502 35.2538 62.3653C35.4265 62.7804 35.6803 63.1576 36.0005 63.4751C36.3207 63.7927 36.701 64.0444 37.1196 64.2157C37.5382 64.3871 37.9868 64.4748 38.4397 64.4737C38.8925 64.4726 39.3407 64.3828 39.7585 64.2094C40.1762 64.0361 40.5553 63.7826 40.874 63.4635C41.1926 63.1444 41.4445 62.766 41.6153 62.3501L44.4794 55.4719H60.5221L63.3862 62.3501C63.6459 62.9742 64.0865 63.5078 64.6524 63.8832C65.2182 64.2586 65.8837 64.459 66.5645 64.4589C67.1293 64.4586 67.6854 64.3202 68.1835 64.0561C68.6816 63.7919 69.1064 63.4101 69.4203 62.9444C69.7342 62.4787 69.9276 61.9435 69.9833 61.3861C70.0389 60.8286 69.9552 60.2662 69.7396 59.7485H69.7411ZM47.3186 48.6541L52.5015 36.2039L57.6845 48.6541H47.3186ZM36.8511 45.6977C37.3851 44.9661 37.6046 44.0543 37.4614 43.1625C37.3181 42.2706 36.8238 41.4715 36.087 40.9407C36.0558 40.9175 33.7432 39.2161 30.3853 35.5593C36.5808 27.2416 40.0902 17.7789 41.5215 13.3256H46.5639C47.4756 13.3256 48.3499 12.9665 48.9946 12.3272C49.6393 11.6879 50.0015 10.8209 50.0015 9.91676C50.0015 9.01267 49.6393 8.1456 48.9946 7.50631C48.3499 6.86702 47.4756 6.50787 46.5639 6.50787H28.4383V3.40889C28.4383 2.50479 28.0762 1.63773 27.4315 0.998439C26.7868 0.359149 25.9124 0 25.0007 0C24.089 0 23.2147 0.359149 22.57 0.998439C21.9253 1.63773 21.5631 2.50479 21.5631 3.40889V6.50787H3.4376C2.52589 6.50787 1.65153 6.86702 1.00685 7.50631C0.362175 8.1456 0 9.01267 0 9.91676C0 10.8209 0.362175 11.6879 1.00685 12.3272C1.65153 12.9665 2.52589 13.3256 3.4376 13.3256H34.2588C32.7713 17.5015 30.0321 24.0946 25.8539 30.116C20.9459 23.6577 19.1224 19.4787 19.1084 19.4446C18.7491 18.6212 18.0769 17.9714 17.2376 17.6363C16.3984 17.3011 15.4597 17.3075 14.6252 17.6542C13.7907 18.0009 13.1277 18.6598 12.7799 19.4881C12.4322 20.3164 12.4277 21.2472 12.7676 22.0787C12.8582 22.2926 15.0411 27.3827 21.0272 35.0836C21.1709 35.268 21.3131 35.4478 21.4553 35.6275C15.3239 42.4995 9.30809 46.7622 6.79082 48.1381C5.99039 48.5711 5.39616 49.3016 5.13888 50.169C4.8816 51.0364 4.98233 51.9696 5.41891 52.7634C5.85549 53.5571 6.59217 54.1464 7.46688 54.4015C8.34158 54.6566 9.28267 54.5568 10.0831 54.1238C10.4206 53.941 17.6771 49.9572 25.9633 40.8617C29.4821 44.5929 31.9009 46.3531 32.0463 46.4554C32.4119 46.7187 32.8263 46.908 33.2658 47.0124C33.7052 47.1168 34.1612 47.1342 34.6074 47.0637C35.0537 46.9932 35.4816 46.8361 35.8666 46.6014C36.2515 46.3668 36.5861 46.0591 36.8511 45.6961V45.6977Z" fill="#A859C4"/>
</svg>
