<svg width="67" height="67" viewBox="0 0 67 67" fill="none" xmlns="http://www.w3.org/2000/svg">
    <path
        d="M47.8212 57.7875L59.4625 46.23L55.945 42.7125L47.8212 50.6688L44.555 47.4025L41.0375 51.0038L47.8212 57.7875ZM10.05 20.1H50.25V13.4H10.05V20.1ZM50.25 67C45.6158 67 41.6651 65.3663 38.3977 62.099C35.1303 58.8316 33.4978 54.8819 33.5 50.25C33.5 45.6158 35.1337 41.6651 38.4011 38.3977C41.6684 35.1303 45.6181 33.4978 50.25 33.5C54.8842 33.5 58.8349 35.1337 62.1023 38.4011C65.3697 41.6684 67.0022 45.6181 67 50.25C67 54.8842 65.3663 58.8349 62.0989 62.1023C58.8316 65.3697 54.8819 67.0022 50.25 67ZM0 63.65V6.70001C0 4.8575 0.6566 3.27965 1.9698 1.96645C3.283 0.653255 4.85973 -0.00222765 6.7 5.68761e-06H53.6C55.4425 5.68761e-06 57.0203 0.656606 58.3335 1.96981C59.6467 3.28301 60.3022 4.85974 60.3 6.70001V29.0613C58.7367 28.2796 57.103 27.7067 55.399 27.3427C53.6949 26.9787 51.9786 26.7978 50.25 26.8H10.05V33.5H33.835C32.8858 34.4492 32.007 35.4821 31.1985 36.5988C30.3901 37.7154 29.6777 38.9158 29.0613 40.2H10.05V46.9H27.0512C26.9396 47.4583 26.8692 48.0033 26.8402 48.5348C26.8112 49.0663 26.7978 49.6381 26.8 50.25C26.8 52.595 27.1216 54.8429 27.7648 56.9936C28.408 59.1443 29.3706 61.1956 30.6525 63.1475L30.15 63.65L25.125 58.625L20.1 63.65L15.075 58.625L10.05 63.65L5.025 58.625L0 63.65Z"
        fill="#C2C7D4" />
</svg>
