<svg width="79" height="57" viewBox="0 0 79 57" fill="none" xmlns="http://www.w3.org/2000/svg">
<path d="M53.25 39.5C52.5207 39.5 51.8212 39.7897 51.3055 40.3055C50.7897 40.8212 50.5 41.5207 50.5 42.25C50.5 42.9793 50.7897 43.6788 51.3055 44.1945C51.8212 44.7103 52.5207 45 53.25 45H64.25C64.9793 45 65.6788 44.7103 66.1945 44.1945C66.7103 43.6788 67 42.9793 67 42.25C67 41.5207 66.7103 40.8212 66.1945 40.3055C65.6788 39.7897 64.9793 39.5 64.25 39.5H53.25ZM1 14.75C1 11.1033 2.44866 7.60591 5.02728 5.02728C7.60591 2.44866 11.1033 1 14.75 1H64.25C67.8967 1 71.3941 2.44866 73.9727 5.02728C76.5513 7.60591 78 11.1033 78 14.75V42.25C78 45.8967 76.5513 49.3941 73.9727 51.9727C71.3941 54.5513 67.8967 56 64.25 56H14.75C11.1033 56 7.60591 54.5513 5.02728 51.9727C2.44866 49.3941 1 45.8967 1 42.25V14.75ZM72.5 17.5V14.75C72.5 12.562 71.6308 10.4635 70.0836 8.91637C68.5365 7.36919 66.438 6.5 64.25 6.5H14.75C12.562 6.5 10.4635 7.36919 8.91637 8.91637C7.36919 10.4635 6.5 12.562 6.5 14.75V17.5H72.5ZM6.5 23V42.25C6.5 44.438 7.36919 46.5365 8.91637 48.0836C10.4635 49.6308 12.562 50.5 14.75 50.5H64.25C66.438 50.5 68.5365 49.6308 70.0836 48.0836C71.6308 46.5365 72.5 44.438 72.5 42.25V23H6.5Z" fill="#777777" stroke="white"/>
</svg>
