<svg width="66" height="80" viewBox="0 0 66 80" fill="none" xmlns="http://www.w3.org/2000/svg">
<path d="M65.25 43.5833V57.9167C65.25 58.8578 65.0646 59.7897 64.7045 60.6592C64.3443 61.5287 63.8164 62.3188 63.1509 62.9843C62.4854 63.6497 61.6954 64.1776 60.8259 64.5378C59.9564 64.898 59.0245 65.0833 58.0833 65.0833V68.6667C58.0833 71.5177 56.9507 74.252 54.9347 76.2681C52.9187 78.2841 50.1844 79.4167 47.3333 79.4167H36.5833C35.633 79.4167 34.7215 79.0391 34.0495 78.3671C33.3775 77.6951 33 76.7837 33 75.8333V74.0417C33 73.5665 33.1888 73.1108 33.5248 72.7748C33.8608 72.4388 34.3165 72.25 34.7917 72.25H47.3333C48.2837 72.25 49.1951 71.8725 49.8671 71.2005C50.5391 70.5285 50.9167 69.617 50.9167 68.6667V65.0833C49.9663 65.0833 49.0549 64.7058 48.3829 64.0338C47.7109 63.3618 47.3333 62.4504 47.3333 61.5V40C47.3333 39.0496 47.7109 38.1382 48.3829 37.4662C49.0549 36.7942 49.9663 36.4167 50.9167 36.4167V25.6667C50.9167 20.9149 49.029 16.3577 45.669 12.9977C42.309 9.63764 37.7518 7.75 33 7.75C28.2482 7.75 23.691 9.63764 20.331 12.9977C16.971 16.3577 15.0833 20.9149 15.0833 25.6667V36.4167C16.0337 36.4167 16.9451 36.7942 17.6171 37.4662C18.2891 38.1382 18.6667 39.0496 18.6667 40V61.5C18.6667 62.4504 18.2891 63.3618 17.6171 64.0338C16.9451 64.7058 16.0337 65.0833 15.0833 65.0833H7.91667C6.97553 65.0833 6.0436 64.898 5.1741 64.5378C4.3046 64.1776 3.51456 63.6497 2.84907 62.9843C2.18358 62.3188 1.65569 61.5287 1.29553 60.6592C0.935371 59.7897 0.75 58.8578 0.75 57.9167V43.5833C0.75 42.6422 0.935371 41.7103 1.29553 40.8408C1.65569 39.9713 2.18358 39.1812 2.84907 38.5157C3.51456 37.8502 4.3046 37.3224 5.1741 36.9622C6.0436 36.602 6.97553 36.4167 7.91667 36.4167V25.6667C7.91667 19.0142 10.5594 12.6341 15.2634 7.93007C19.9674 3.22603 26.3475 0.583332 33 0.583332C39.6525 0.583332 46.0326 3.22603 50.7366 7.93007C55.4406 12.6341 58.0833 19.0142 58.0833 25.6667V36.4167C59.0245 36.4167 59.9564 36.602 60.8259 36.9622C61.6954 37.3224 62.4854 37.8502 63.1509 38.5157C63.8164 39.1812 64.3443 39.9713 64.7045 40.8408C65.0646 41.7103 65.25 42.6422 65.25 43.5833Z" fill="#53B390"/>
</svg>
