<svg width="70" height="76" viewBox="0 0 70 76" fill="none" xmlns="http://www.w3.org/2000/svg">
<path d="M69.2492 49.975C66.1734 46.9438 64.2629 42.7339 64.2629 38.0745C64.2629 33.416 66.173 29.2065 69.2484 26.1748C69.2484 26.1748 70.2571 25.0846 69.8416 23.9006C68.535 20.6825 66.7802 17.6358 64.6045 14.8603C63.7859 13.9451 62.4338 14.3736 62.4338 14.3736C58.2694 15.5208 53.6673 15.0697 49.6312 12.7404C45.5954 10.4112 42.9038 6.6527 41.8152 2.47478C41.8152 2.47478 41.3724 1.04736 40.0903 0.811808C38.0555 0.437639 31.8515 0.414353 29.5423 0.87197C28.4623 1.20057 28.1845 2.47308 28.1845 2.47308C27.0963 6.6519 24.4044 10.4107 20.3683 12.7404C16.3325 15.0697 11.7308 15.5208 7.56677 14.374L7.57456 14.381C7.57456 14.381 6.09907 14.0405 5.28418 15.0144C4.24802 16.3493 0.710801 22.5132 0.0466111 24.1816C-0.222523 25.2887 0.76167 26.1774 0.76167 26.1774L0.750577 26.1745C3.82638 29.2058 5.7369 33.4156 5.7369 38.0746C5.7369 42.7336 3.82638 46.9431 0.750977 49.9743C0.750977 49.9743 -0.2573 51.0646 0.157743 52.2483C1.46474 55.4671 3.21955 58.5143 5.39561 61.2898C6.2138 62.2046 7.56597 61.7761 7.56597 61.7761C11.73 60.6289 16.3325 61.08 20.3686 63.4093C24.404 65.7385 27.0959 69.4969 28.1841 73.6749C28.1841 73.6749 28.718 75.1922 29.9091 75.338C31.1002 75.4843 36.9789 75.7908 40.4576 75.2778C41.4937 75.1016 41.8153 73.677 41.8153 73.677C42.9035 69.4982 45.595 65.7391 49.6313 63.4094C53.667 61.0801 58.2691 60.6294 62.4328 61.7762C62.4328 61.7762 63.9004 62.1098 64.7153 61.1359C65.7514 59.8009 69.2887 53.6371 69.9528 51.969C70.2223 50.8613 69.2492 49.975 69.2492 49.975ZM48.9563 46.1297C44.5063 53.8355 34.6499 56.4757 26.9422 52.027C19.2341 47.5782 16.5934 37.725 21.0434 30.0195C25.4939 22.3141 35.3499 19.6739 43.0576 24.1227C50.7656 28.5714 53.4064 38.4244 48.9563 46.1297Z" fill="#C2C7D4"/>
</svg>
