<svg width="65" height="67" viewBox="0 0 65 67" fill="none" xmlns="http://www.w3.org/2000/svg">
<path d="M64.8668 60.0508C64.8668 61.0192 64.7022 61.9222 64.3707 62.7611C64.0415 63.601 63.5703 64.3393 62.9603 64.9764C62.3503 65.6133 61.6379 66.1095 60.8239 66.4645C60.0111 66.8196 59.1204 66.9989 58.1543 67H7.38908C6.42287 67 5.50747 66.8218 4.64329 66.4645C3.77911 66.1071 3.01587 65.6121 2.35357 64.9764C1.69119 64.3405 1.16983 63.6033 0.789345 62.7611C0.40827 61.9211 0.217774 61.0181 0.217774 60.0508L0.217773 21.9359C0.217773 20.0002 0.891372 18.3576 2.23865 17.0081C3.58652 15.6592 5.22683 14.9845 7.15974 14.9845H57.9244C59.8579 14.9845 61.4982 15.6593 62.8467 17.0081C64.1927 18.3576 64.867 20.0002 64.867 21.9359V32.3236H47.5502C45.6166 32.3236 43.9763 32.986 42.629 34.3101C41.2818 35.636 40.6077 37.2662 40.6077 39.1996C40.6583 40.5243 40.938 41.6956 41.4476 42.7137C41.8544 43.5795 42.5287 44.3686 43.4689 45.0823C44.4091 45.7959 45.7699 46.1533 47.5502 46.1533H64.8669V60.0552V60.0508H64.8668ZM54.4925 11.472H19.8591C22.606 10.0464 25.2001 8.671 27.6409 7.3464C29.7779 6.22519 31.8884 5.10456 33.973 3.9856C36.0574 2.86556 37.6854 1.99971 38.8556 1.38696C40.6358 0.419077 42.2243 -0.0267802 43.6222 0.0504729C45.0202 0.126554 46.2028 0.368943 47.169 0.775881C48.2897 1.33682 49.2547 2.0747 50.0687 2.99061L54.4925 11.472ZM44.1183 39.1996C44.1183 38.2313 44.4476 37.4173 45.1094 36.7556C45.77 36.0937 46.5828 35.7624 47.5502 35.7624C48.5175 35.7624 49.3302 36.0937 49.9909 36.7556C50.6516 37.4173 50.9819 38.2313 50.9819 39.1996C50.9819 40.1681 50.6516 40.9956 49.9909 41.6834C49.3302 42.371 48.5175 42.7139 47.5502 42.7139C46.5828 42.7139 45.7699 42.371 45.1094 41.6834C44.4475 40.9956 44.1183 40.1681 44.1183 39.1996Z" fill="#C2C7D4"/>
</svg>
